<svg width="0" height="0" class="hidden">
  <symbol fill="none"
    xmlns="http://www.w3.org/2000/svg" viewBox="0 0 22 22" id="Group">
    <g clip-path="url(#clip0_9_107)">
      <path d="M14.9139 19.4224C14.5389 19.3895 14.1856 19.2324 13.91 18.976L10.777 16.0785L8.30615 18.3684C8.19741 18.469 8.0639 18.539 7.91925 18.5712C7.77461 18.6034 7.62401 18.5966 7.48284 18.5516C7.34168 18.5065 7.215 18.4248 7.11575 18.3147C7.0165 18.2047 6.94824 18.0703 6.91794 17.9252L5.72054 12.2061L2.7897 10.8904C2.47331 10.7481 2.20769 10.513 2.02813 10.2162C1.84857 9.91934 1.76357 9.57492 1.78442 9.22865C1.80528 8.88237 1.931 8.55064 2.14489 8.27752C2.35877 8.00441 2.6507 7.80283 2.98188 7.69958L18.4528 2.9735C18.7481 2.88254 19.0625 2.87329 19.3626 2.94674C19.6627 3.02019 19.9373 3.17359 20.1572 3.39063C20.3771 3.60767 20.534 3.88023 20.6114 4.17936C20.6887 4.47848 20.6836 4.79297 20.5965 5.0894L16.7073 18.2073C16.593 18.5848 16.3525 18.9116 16.026 19.1328C15.6995 19.354 15.3068 19.4563 14.9139 19.4224L14.9139 19.4224Z" fill="#FF6161"></path>
      <path d="M7.66414 18.588C7.4852 18.5724 7.31602 18.4996 7.18164 18.3804C7.04725 18.2612 6.95479 18.1019 6.91792 17.9261L5.63236 11.7981C5.59213 11.6071 5.61996 11.4081 5.71104 11.2354C5.80212 11.0628 5.95072 10.9275 6.13107 10.853L15.3444 7.03589C15.5291 6.95917 15.7352 6.95114 15.9253 7.01325C16.1154 7.07537 16.277 7.20352 16.3808 7.37449C16.4846 7.54547 16.5237 7.74796 16.4911 7.94528C16.4584 8.14261 16.3562 8.32172 16.2029 8.45018L9.77978 13.8398L8.5392 17.9933C8.48611 18.1718 8.37497 18.3274 8.22341 18.4356C8.07185 18.5438 7.88853 18.5983 7.70248 18.5905C7.68939 18.5902 7.67635 18.5891 7.66414 18.588Z" fill="#FF0000"></path>
    </g>
    <defs>
      <clipPath id="clip0_9_107">
        <rect width="20.0896" height="20.0896" fill="white" transform="translate(1.75098) rotate(5)"></rect>
      </clipPath>
    </defs>
  </symbol>
  <symbol fill="none"
    xmlns="http://www.w3.org/2000/svg" viewBox="0 0 19 20" id="user">
    <g clip-path="url(#clip0_4_22)">
      <path fill-rule="evenodd" clip-rule="evenodd" d="M9.49998 0.895874C7.42316 0.895874 5.73957 2.57947 5.73957 4.65629C5.73957 6.73311 7.42316 8.41671 9.49998 8.41671C11.5768 8.41671 13.2604 6.73311 13.2604 4.65629C13.2604 2.57947 11.5768 0.895874 9.49998 0.895874ZM7.3229 4.65629C7.3229 3.45392 8.29761 2.47921 9.49998 2.47921C10.7024 2.47921 11.6771 3.45392 11.6771 4.65629C11.6771 5.85866 10.7024 6.83337 9.49998 6.83337C8.29761 6.83337 7.3229 5.85866 7.3229 4.65629Z" fill="#777373"></path>
      <path fill-rule="evenodd" clip-rule="evenodd" d="M9.49998 10C3.27351 10 1.18748 13.3863 1.18748 15.1459C1.18748 15.9195 1.44882 16.6258 1.96363 17.1406C2.47843 17.6554 3.18466 17.9167 3.95832 17.9167H15.0417C15.8153 17.9167 16.5215 17.6554 17.0363 17.1406C17.5511 16.6258 17.8125 15.9195 17.8125 15.1459C17.8125 13.3863 15.7265 10 9.49998 10ZM2.77082 15.1459C2.77082 14.5304 3.85146 11.5834 9.49998 11.5834C15.1485 11.5834 16.2292 14.5304 16.2292 15.1459C16.2292 15.5597 16.0947 15.8431 15.9168 16.021C15.7389 16.1989 15.4555 16.3334 15.0417 16.3334H3.95832C3.54447 16.3334 3.26112 16.1989 3.08322 16.021C2.90531 15.8431 2.77082 15.5597 2.77082 15.1459Z" fill="#777373"></path>
    </g>
    <defs>
      <clipPath id="clip0_4_22">
        <rect width="19" height="19" fill="white" transform="translate(0 0.5)"></rect>
      </clipPath>
    </defs>
  </symbol>
  <symbol fill="none"
    xmlns="http://www.w3.org/2000/svg" viewBox="0 0 14 11" id="Polygon1">
    <path d="M7 11L0.937822 0.5L13.0622 0.5L7 11Z" fill="#FF0000"></path>
  </symbol>
  <symbol fill="none"
    xmlns="http://www.w3.org/2000/svg" viewBox="0 0 7 10" id="Polygon5">
    <path d="M6.64195 5.05365L0.552262 9.62392L0.363795 0.870746L6.64195 5.05365Z" fill="#FF0000"></path>
  </symbol>
</svg>